<?xml version="1.0" encoding="UTF-8"?>
<svg xmlns="http://www.w3.org/2000/svg" viewBox="0 0 180 124.32">
  <defs>
    <style>.cls-1{fill:#4d4d4f;}.cls-2{fill:#fdb913;}.cls-3{fill:#808285;}</style>
  </defs>
  <path class="cls-1 logo-wordmark" d="M5.92,71.19H16.57V92.66H37.89V71.19H48.54v53.13H37.89V101H16.57v23.29H5.92Zm126.5,0h10.65V92.66h21.32V71.19h10.66v53.13H164.39V101H143.07v23.29H132.42Zm-71.7,0h17L90.4,111.46h.15l12.64-40.27h17v53.13H110V80.48h-.15L95.58,124.32H85.38L71.07,80.48l-.16.15v43.69H60.72Z"></path>
  <path class="cls-2" d="M180,28.56A27.86,27.86,0,1,1,152.14.71,27.86,27.86,0,0,1,180,28.56ZM95.8,21.3C86.46,12,75.53,6.94,68.34,8h-.09l-.18,0a8.69,8.69,0,0,0-4.81,2.37c-6,6-1.14,20.56,10.85,32.55s26.56,16.84,32.55,10.85A8.75,8.75,0,0,0,109,49.05C110.29,41.85,105.27,30.77,95.8,21.3Z"></path>
  <path class="cls-3" d="M109,49.05h0c1.26-7.2-3.76-18.28-13.23-27.75S75.53,6.94,68.34,8L117.24.18ZM32,0,0,55.1H63.58Z"></path>
</svg>
