<?xml version="1.0" encoding="UTF-8"?>
<svg width="734.91" height="159.67" version="1.1" viewBox="0 0 734.90668 159.66667" xml:space="preserve" xmlns="http://www.w3.org/2000/svg" xmlns:cc="http://creativecommons.org/ns#" xmlns:dc="http://purl.org/dc/elements/1.1/" xmlns:rdf="http://www.w3.org/1999/02/22-rdf-syntax-ns#"><metadata><rdf:RDF><cc:Work rdf:about=""><dc:format>image/svg+xml</dc:format><dc:type rdf:resource="http://purl.org/dc/dcmitype/StillImage"/></cc:Work></rdf:RDF></metadata><g transform="matrix(1.3333 0 0 -1.3333 0 159.67)"><g transform="scale(.1)"><path d="m1105 992.34h-674.42v-112.77h674.42v-674.42h112.77v787.18h-112.77" fill="#36aca5"/><path d="m1330.5 1197.5h-1125.5v-112.79h1125.5v-1084.7h112.77v1197.5h-112.77" fill="#36aca5"/><path d="m899.9 787.2h-264.11v-112.77h264.11v-264.14h112.76v376.91h-112.76" fill="#36aca5"/><path d="m338.3 205.15h674.41v112.77h-674.41v674.41h-112.77v-787.18h112.77" fill="#36aca5"/><path d="m112.77 0h1125.5v112.77h-1125.5v1084.7h-112.77v-1197.5h112.77" fill="#36aca5"/><path d="m543.41 410.29h264.11v112.77h-264.11v264.13h-112.77v-376.91h112.77" fill="#36aca5"/><path d="m1892.2 640.74h64.11c19.91 0 35.74 2.793 47.54 8.301 11.8 5.547 20.82 13.437 27.1 23.801 6.25 10.301 10.5 22.996 12.7 38.133 2.22 15.078 3.33 32.597 3.33 52.492 0 19.91-1.11 37.422-3.33 52.519-2.2 15.117-6.82 28.016-13.82 38.707-7.02 10.668-16.77 18.618-29.29 23.774-12.54 5.144-29.12 7.73-49.75 7.73h-58.59zm-112.8 351.59h181.34c132.67 0 199-77.031 199-231.07 0-45.723-7.19-84.95-21.55-117.74-14.38-32.801-39.63-59.144-75.74-79.066l121.61-359.32h-119.4l-105.04 336.11h-67.42v-336.11h-112.8v787.18" fill="#231f20"/><path d="m2250.4 992.34h336.09v-106.14h-223.32v-231.08h194.58v-106.14h-194.58v-231.05h223.32v-112.77h-336.09v787.18" fill="#231f20"/><path d="m3017.7 380.95c0-24.316-4.61-47.539-13.82-69.668-9.24-22.109-21.94-41.445-38.14-58.027-16.23-16.602-35.21-29.863-56.95-39.805-21.73-9.961-45.15-14.941-70.2-14.941-21.4 0-43.1 2.949-65.24 8.847-22.09 5.879-41.99 16.036-59.69 30.411-17.68 14.375-32.26 33.339-43.66 56.933-11.44 23.594-17.15 53.438-17.15 89.551v433.4c0 25.789 4.43 49.754 13.25 71.856 8.87 22.129 21.39 41.281 37.61 57.5 16.2 16.203 35.55 28.926 58.04 38.136 22.48 9.215 47.35 13.829 74.62 13.829 25.81 0 49.76-4.614 71.86-13.829 22.13-9.21 41.28-22.121 57.51-38.703 16.2-16.582 28.9-36.472 38.14-59.687 9.21-23.223 13.82-48.477 13.82-75.742v-44.219h-112.78v37.598c0 22.089-6.27 41.269-18.79 57.492-12.55 16.199-29.48 24.312-50.86 24.312-27.99 0-46.64-8.679-55.82-25.984-9.24-17.313-13.82-39.258-13.82-65.77v-402.44c0-22.871 4.99-42.012 14.92-57.5 9.97-15.488 27.83-23.223 53.63-23.223 7.36 0 15.27 1.289 23.76 3.867 8.48 2.578 16.2 6.817 23.22 12.715 7 5.899 12.73 14.004 17.13 24.317 4.44 10.351 6.63 23.242 6.63 38.711v38.71h112.78v-48.652" fill="#231f20"/><path d="m3474.3 382.07c0-25.82-4.81-49.746-14.39-71.875-9.57-22.109-22.62-41.464-39.23-58.046-16.59-16.582-35.93-29.688-58.03-39.258-22.1-9.551-45.73-14.375-70.74-14.375-25.08 0-48.67 4.824-70.8 14.375-22.1 9.57-41.44 22.676-58.04 39.258-16.57 16.582-29.68 35.937-39.26 58.046-9.57 22.129-14.35 46.055-14.35 71.875v610.27h112.78v-599.23c0-28.028 6.63-48.653 19.91-61.895 13.25-13.281 29.84-19.922 49.76-19.922 19.88 0 36.45 6.641 49.73 19.922 13.28 13.242 19.88 33.867 19.88 61.895v599.23h112.78v-610.27" fill="#231f20"/><path d="m3693.1 640.74h64.15c19.88 0 35.75 2.793 47.53 8.301 11.77 5.547 20.81 13.437 27.1 23.801 6.24 10.301 10.51 22.996 12.7 38.133 2.22 15.078 3.31 32.597 3.31 52.492 0 19.91-1.09 37.422-3.31 52.519-2.19 15.117-6.83 28.016-13.82 38.707-7.02 10.668-16.76 18.618-29.32 23.774-12.52 5.144-29.12 7.73-49.72 7.73h-58.62zm-112.77 351.59h181.35c132.66 0 198.98-77.031 198.98-231.07 0-45.723-7.18-84.95-21.53-117.74-14.38-32.801-39.65-59.144-75.73-79.066l121.59-359.32h-119.4l-105.03 336.11h-67.46v-336.11h-112.77v787.18" fill="#231f20"/><path d="m4416.2 765.7h-112.74v25.41c0 25.782-6.1 48.098-18.25 66.907-12.16 18.789-32.6 28.179-61.36 28.179-15.47 0-28.2-2.945-38.14-8.824-9.97-5.949-17.68-13.457-23.22-22.68-5.53-9.215-9.4-19.898-11.62-32.066-2.2-12.16-3.29-24.887-3.29-38.137 0-15.488 0.54-28.574 1.66-39.25 1.09-10.711 3.85-19.91 8.28-27.644 4.41-7.743 10.87-14.563 19.35-20.442 8.45-5.933 20.07-11.824 34.82-17.691l86.24-34.289c25.05-9.59 45.32-20.828 60.79-33.723 15.5-12.906 27.46-28.019 35.95-45.305 8.48-17.343 14.18-37.246 17.13-59.726 2.95-22.481 4.4-48.086 4.4-76.817 0-33.183-3.28-63.984-9.94-92.304-6.62-28.399-17.52-52.715-32.6-73.008-15.13-20.273-35.21-36.309-60.26-48.086-25.08-11.777-55.66-17.695-91.77-17.695-27.26 0-52.7 4.824-76.27 14.375-23.61 9.57-43.87 22.676-60.8 39.258-16.98 16.582-30.41 36.308-40.38 59.14-9.93 22.871-14.9 47.539-14.9 74.082v42.012h112.77v-35.371c0-20.645 6.07-39.258 18.22-55.84 12.19-16.582 32.63-24.883 61.36-24.883 19.18 0 34.09 2.774 44.79 8.301 10.67 5.527 18.79 13.262 24.32 23.223 5.53 9.941 9.02 22.265 10.5 37.031 1.47 14.726 2.22 30.957 2.22 48.652 0 20.625-0.75 37.578-2.22 50.86-1.48 13.281-4.61 23.925-9.4 32.07-4.81 8.086-11.44 14.726-19.89 19.883-8.48 5.136-19.74 10.683-33.73 16.582l-80.7 33.164c-48.63 19.918-81.27 46.246-97.83 79.039-16.6 32.801-24.88 73.887-24.88 123.29 0 29.465 4.04 57.48 12.15 84.031 8.09 26.516 20.08 49.367 35.92 68.547 15.84 19.152 35.95 34.445 60.27 45.859 24.34 11.426 52.7 17.161 85.13 17.161 27.97 0 53.62-5.168 76.84-15.489 23.19-10.324 43.1-23.957 59.69-40.918 16.61-16.957 29.29-35.898 38.14-56.914 8.85-21.027 13.25-42.558 13.25-64.699v-55.254" fill="#231f20"/><path d="m4503.5 992.34h112.78v-787.18h-112.78v787.18" fill="#231f20"/><path d="m4946.9 205.15h-99.53l-160.28 787.18h119.4l89.55-549.47h2.19l90.68 549.47h119.4l-161.41-787.18" fill="#231f20"/><path d="m5175.7 992.34h336.08v-106.14h-223.3v-231.08h194.57v-106.14h-194.57v-231.05h223.3v-112.77h-336.08v787.18" fill="#231f20"/></g></g></svg>
